<svg width="320" height="320" viewBox="0 0 320 320" fill="none" xmlns="http://www.w3.org/2000/svg">
<path d="M223.817 128C241.097 128 255.542 142.175 255.989 159.362L256.011 161.003C256.44 177.907 270.093 191.56 286.997 191.989L288.638 192.011C305.825 192.458 320 206.903 320 224.183C320 241.463 305.825 255.553 288.638 255.989L286.997 256.011C270.093 256.451 256.44 270.448 256.011 287.362L255.989 289.003C255.542 306.179 241.097 320 223.817 320H95.8174C78.5373 320 64.4467 306.179 64.0107 289.003L63.9893 287.362C63.7692 278.905 60.1598 271.177 54.4912 265.509L73.3262 246.674C79.0862 252.434 87.0402 256 95.8174 256H223.817C241.372 256 256 241.737 256 224.183C256 206.629 241.372 192 223.817 192H128L192 128H223.817ZM31.8174 192C49.0973 192 63.5421 206.175 63.9893 223.362L64.0107 225.003C64.0324 225.857 64.0879 226.702 64.1758 227.538L35.4961 256.218C34.554 256.107 33.6007 256.036 32.6377 256.011L30.9971 255.989C13.8208 255.553 0 241.463 0 224.183C0.000138504 206.628 14.2632 192 31.8174 192ZM223.817 0C241.097 0.000118723 255.542 14.1751 255.989 31.3623L256.011 33.0029C256.032 33.857 256.088 34.7028 256.176 35.5391L227.496 64.2188C226.287 64.0763 225.06 64 223.817 64H95.8174C78.2632 64 64.0001 78.6284 64 96.1826C64 113.737 78.2631 128 95.8174 128H163.716L99.7148 192H95.8174C78.5373 192 64.4467 178.179 64.0107 161.003L63.9893 159.362C63.5492 142.448 49.5522 128.451 32.6377 128.011L30.9971 127.989C13.8208 127.553 0 113.463 0 96.1826C0.000131935 78.9026 13.8209 64.4578 30.9971 64.0107L32.6377 63.9893C49.5522 63.5601 63.5493 49.9066 63.9893 33.0029L64.0107 31.3623C64.4468 14.1751 78.5373 0 95.8174 0H223.817ZM265.326 54.6738C270.906 60.2539 278.545 63.7747 286.997 63.9893L288.638 64.0107C305.825 64.4579 320 78.9027 320 96.1826C320 113.737 305.372 128 287.817 128C270.537 128 256.447 114.179 256.011 97.0029L255.989 95.3623C255.769 86.9051 252.16 79.1774 246.491 73.5088L265.326 54.6738Z" fill="black"/>
</svg>
